<svg id="visual" viewBox="0 0 1200 900" width="1200" height="900" xmlns="http://www.w3.org/2000/svg" xmlns:xlink="http://www.w3.org/1999/xlink" version="1.1"><rect x="0" y="0" width="1200" height="900" fill="#CCCCCC"></rect><path d="M0 324L171 288L343 329L514 321L686 341L857 329L1029 234L1200 345L1200 0L1029 0L857 0L686 0L514 0L343 0L171 0L0 0Z" fill="#f7caca"></path><path d="M0 266L171 255L343 242L514 192L686 226L857 304L1029 274L1200 197L1200 0L1029 0L857 0L686 0L514 0L343 0L171 0L0 0Z" fill="#f2c0c5"></path><path d="M0 211L171 238L343 181L514 198L686 219L857 217L1029 234L1200 157L1200 0L1029 0L857 0L686 0L514 0L343 0L171 0L0 0Z" fill="#edb7c2"></path><path d="M0 93L171 86L343 110L514 100L686 133L857 113L1029 111L1200 169L1200 0L1029 0L857 0L686 0L514 0L343 0L171 0L0 0Z" fill="#e7aec0"></path><path d="M0 42L171 71L343 84L514 53L686 46L857 97L1029 76L1200 80L1200 0L1029 0L857 0L686 0L514 0L343 0L171 0L0 0Z" fill="#e0a6be"></path></svg>